<svg version="1.1" id="Layer_1" xmlns="http://www.w3.org/2000/svg" xmlns:xlink="http://www.w3.org/1999/xlink" x="0px" y="0px"
	 width="100%" viewBox="0 0 1585 958" xml:space="preserve" stroke="#0084ff">
<path fill="none" opacity="1.000000" stroke-linecap="round" stroke-linejoin="round" stroke-width="5.000000"
	d="
M314.000000,244.500000 
	C312.000000,244.666656 309.995117,245.022812 308.000732,244.971420 
	C281.063416,244.277008 254.203323,245.630722 227.517548,249.133713 
	C211.717590,251.207748 196.070343,254.344696 180.445160,257.748260 
	C155.109863,263.266907 130.542358,270.991394 107.097290,281.712769 
	C84.441589,292.073181 64.297615,306.055023 53.488598,329.994843 
	C48.242428,341.614075 45.564785,353.850006 45.048340,366.501984 
	C43.945343,393.523346 48.264206,420.081482 53.161182,446.470093 
	C56.713570,465.613098 61.429459,484.554779 65.747391,503.557404 
	C69.274284,519.078796 72.623634,534.697449 75.145164,550.476807 
	C77.698296,566.453918 79.868698,582.468201 82.115944,598.483704 
	C84.450409,615.120850 86.093796,631.826721 87.890030,648.511841 
	C89.570686,664.123169 90.356277,679.831665 91.494240,695.500427 
	C92.945099,715.477356 94.063797,735.470459 94.513504,755.499695 
	C94.951347,775.001099 95.492218,794.500183 96.017075,813.999512 
	C96.053055,815.336365 96.333336,816.666687 96.500000,818.000000 
"/>
<path fill="none" opacity="1.000000"  stroke-linecap="round" stroke-linejoin="round" stroke-width="5.000000"
	d="
M1321.000000,814.500000 
	C1322.546021,805.132935 1325.656982,796.161743 1328.061768,787.016235 
	C1332.853149,768.794739 1337.935669,750.648682 1343.014771,732.504150 
	C1351.080933,703.689026 1358.667480,674.744446 1366.878418,645.965332 
	C1374.773926,618.292358 1381.198975,590.199219 1389.132202,562.537903 
	C1396.959595,535.245911 1403.914917,507.720490 1411.787964,480.438812 
	C1416.423096,464.376892 1420.755005,448.190399 1425.007935,432.002075 
	C1426.418335,426.633606 1426.345459,426.500610 1420.500000,426.500580 
	C1293.166626,426.499878 1165.833374,426.529938 1038.500244,426.360748 
	C1034.528809,426.355469 1032.890381,428.137329 1032.070679,431.020081 
	C1028.244507,444.474731 1024.715820,458.013580 1020.990417,471.497345 
	C1011.686401,505.172119 1002.570190,538.901367 992.925293,572.478577 
	C985.176025,599.456299 977.827698,626.547119 970.209534,653.559082 
	C962.990234,679.156921 955.959106,704.822144 948.989685,730.497192 
	C946.722717,738.848572 944.454102,747.203003 941.961670,755.488464 
	C939.988708,762.046814 938.016479,768.636292 935.940796,775.140686 
	C934.292908,780.304443 932.214233,785.669556 931.739624,791.478699 
	C931.200989,798.070862 928.924988,804.584656 926.839355,810.947327 
	C926.229309,812.808167 926.557922,814.818848 925.500000,816.500000 
"/>
<path fill="none" opacity="1.000000"  stroke-linecap="round" stroke-linejoin="round" stroke-width="5.000000"
	d="
M326.000000,352.000000 
	C324.043213,351.941345 322.509186,352.730438 320.973969,353.967712 
	C307.503754,364.823792 291.835266,371.893768 276.479065,379.457520 
	C265.312469,384.957642 254.258286,390.762878 242.918686,395.817596 
	C224.103745,404.204468 206.439926,414.452576 189.535004,426.050995 
	C167.539917,441.141754 155.030945,462.767395 147.989929,487.997192 
	C142.144180,508.944000 139.625137,530.383606 137.933884,551.994812 
	C136.604507,568.981873 135.783936,585.988586 134.746124,602.984497 
	C134.235840,611.341614 134.741867,619.701904 133.935120,627.993713 
	C131.925415,648.649353 133.284927,669.334595 133.095200,690.000854 
	C132.949890,705.829773 133.127930,721.700989 134.133713,737.491455 
	C135.448380,758.131104 137.032089,778.805054 142.035141,798.991272 
	C143.251099,803.897522 144.904083,808.695374 146.610153,814.391113 
	C141.081284,814.926636 135.537231,815.938477 130.000717,815.898865 
	C119.233467,815.821716 108.456970,816.322510 98.044815,818.696533 
	C87.641434,821.068604 78.115051,825.417969 74.931747,837.481995 
	C71.482498,850.553955 77.775726,861.754700 86.968689,867.549683 
	C98.669998,874.925903 111.528328,878.645935 124.986160,881.076660 
	C135.930557,883.053406 146.871948,884.418213 157.991409,885.133606 
	C182.034241,886.680542 206.008972,886.286804 230.001190,884.516052 
	C240.327469,883.753967 250.712860,883.569275 260.987457,882.390625 
	C271.992889,881.128113 283.044678,880.318726 294.029510,878.700378 
	C300.777039,877.706299 307.689056,877.319214 314.492462,876.441467 
	C323.676819,875.256592 332.864471,874.041199 342.031616,872.719238 
	C349.831451,871.594421 357.683838,870.634949 365.500092,869.500549 
	C376.999725,867.831482 388.491211,866.102966 400.002472,864.517944 
	C411.491211,862.936096 423.037933,861.742065 434.491852,859.947876 
	C456.041016,856.572449 477.791077,855.589355 499.508240,854.701904 
	C510.175201,854.266052 520.937317,855.590088 531.525024,857.884399 
	C537.553162,859.190674 543.820007,859.515869 550.002380,859.967041 
	C572.136719,861.582520 594.290466,862.974121 616.499207,862.465088 
	C632.485718,862.098694 648.476624,861.308960 663.980652,856.931519 
	C670.240356,855.164185 676.691284,853.149658 678.505981,845.501404 
	C678.627136,844.990662 679.134827,844.270752 678.954956,844.034180 
	C675.961731,840.097778 676.948364,834.406982 672.567871,830.914856 
	C666.287598,825.908203 662.176636,818.793213 658.724792,811.887634 
	C650.208130,794.849243 636.337402,783.561768 620.992371,773.511658 
	C615.539246,769.940125 610.417419,765.844055 604.500000,763.000000 
"/>
<path fill="none" opacity="1.000000"  stroke-linecap="round" stroke-linejoin="round" stroke-width="5.000000"
	d="
M946.500000,735.000000 
	C937.879150,729.026855 928.952515,723.548950 919.486450,719.028442 
	C908.919800,713.982361 898.069153,710.092773 885.997559,711.984375 
	C877.810669,713.267334 869.981201,715.921692 861.989746,717.959839 
	C853.373047,720.157410 845.004211,723.284729 836.011230,724.120911 
	C831.237671,724.564819 826.958313,725.090820 822.927368,721.583496 
	C820.393433,719.378662 816.625000,719.653870 813.477295,719.138672 
	C782.938049,714.139893 752.548035,708.340759 722.535278,700.858459 
	C703.513062,696.116150 684.834961,689.994324 665.998779,684.504211 
	C661.431458,683.172974 659.900452,678.906433 658.129395,675.434021 
	C651.542297,662.519409 646.274658,649.004272 640.971191,635.511292 
	C630.736694,609.472473 620.376404,583.482788 609.987366,557.505066 
	C600.379944,533.481384 590.838806,509.428711 580.938965,485.525269 
	C574.427795,469.803986 568.511658,453.759888 558.045288,439.965668 
	C551.495911,431.333923 543.058411,425.185364 534.053467,419.416565 
	C519.684387,410.211395 503.877716,404.056976 488.422607,397.173798 
	C486.074707,396.128143 484.046234,394.890350 482.000000,393.500000 
"/>
<path fill="none" opacity="1.000000"  stroke-linecap="round" stroke-linejoin="round" stroke-width="5.000000"
	d="
M897.000000,793.500000 
	C895.719116,794.657288 894.194702,794.916748 892.502319,795.033936 
	C880.680054,795.852234 868.809753,795.510071 857.008423,796.154358 
	C834.013672,797.409912 810.978821,797.297668 787.986023,798.783508 
	C778.700134,799.383667 769.313599,799.548889 760.009094,800.142395 
	C748.819641,800.856079 737.527710,801.047729 726.504211,803.518677 
	C721.961365,804.536987 718.828979,807.784241 719.000000,811.000000 
	C719.172180,814.237854 722.653076,817.338013 727.004272,817.970703 
	C728.309937,818.160583 729.666687,818.000000 731.000000,818.000000 
	C787.000000,818.000000 843.000000,818.017456 899.000000,817.977905 
	C906.000122,817.972961 913.011108,817.330078 919.997986,817.561157 
	C943.831116,818.349609 967.671997,818.205505 991.498352,817.879883 
	C1011.000488,817.613220 1030.500000,817.655518 1049.999512,817.457703 
	C1052.836060,817.428955 1055.666626,816.833313 1058.500000,816.500000 
"/>
<path fill="none" opacity="1.000000"  stroke-linecap="round" stroke-linejoin="round" stroke-width="5.000000"
	d="
M147.000000,815.000000 
	C149.735947,817.249268 150.334702,820.840454 152.445557,823.542542 
	C160.379730,833.699036 171.343887,837.958679 183.501846,839.988953 
	C204.859207,843.555664 226.420929,843.950378 248.000015,843.996155 
	C258.499969,844.018433 269.005280,844.213501 279.498871,843.954285 
	C299.520172,843.459717 319.512146,842.361938 339.511597,841.199402 
	C360.730652,839.966003 381.849640,837.808472 402.988312,835.872314 
	C419.713104,834.340393 436.377441,831.952698 452.983124,829.390625 
	C462.659973,827.897644 472.277771,827.458862 482.000549,827.989746 
	C484.839722,828.144775 486.950256,827.626526 488.640289,824.577759 
	C491.474731,819.464600 497.215454,820.137817 501.446777,821.210022 
	C515.002441,824.645325 527.370422,822.850830 539.578308,816.142517 
	C545.941162,812.645996 552.578979,809.488281 559.450439,806.869934 
	C563.630188,805.277283 567.291565,804.642456 571.521057,806.450745 
	C584.508118,812.003113 596.034668,819.938354 607.499390,828.000916 
	C612.560669,831.560181 618.313416,834.374878 621.000000,840.500000 
"/>
<path fill="none" opacity="1.000000"  stroke-linecap="round" stroke-linejoin="round" stroke-width="5.000000"
	d="
M206.500000,444.000000 
	C232.151138,459.288147 244.031342,484.183044 252.949371,511.016815 
	C258.385468,527.373718 260.865631,544.285217 262.136017,561.489929 
	C263.330933,577.672607 263.222504,593.845032 262.862244,609.996948 
	C262.419586,629.842163 261.477234,649.682739 260.159607,669.510620 
	C259.118835,685.172607 258.124573,700.846741 256.837402,716.486633 
	C256.399628,721.805908 256.973083,727.422852 254.500000,732.500000 
"/>
<path fill="none" opacity="1.000000"  stroke-linecap="round" stroke-linejoin="round" stroke-width="5.000000"
	d="
M231.500000,733.500000 
	C235.833328,733.166687 240.167725,732.846436 244.499786,732.497253 
	C253.316544,731.786499 261.777527,734.540955 270.484772,735.200867 
	C289.165009,736.616455 307.793915,738.697632 326.489349,740.138062 
	C351.806061,742.088745 377.170319,741.965149 402.493988,743.130371 
	C417.502991,743.820984 432.517151,743.435974 447.493561,744.137390 
	C462.500763,744.840210 477.516083,743.722534 492.504883,744.939880 
	C496.109772,745.232666 498.895386,747.166870 501.998932,748.502441 
	C507.999725,751.084900 513.985840,751.313965 520.536438,750.217896 
	C527.649902,749.027710 534.859741,748.162354 541.994080,746.964844 
	C550.019775,745.617676 558.029724,744.141479 565.993103,742.467163 
	C578.258301,739.888306 590.469543,737.048645 602.999390,735.992432 
	C605.343506,735.794800 607.579102,736.108337 609.490784,737.512573 
	C624.561951,748.583252 639.930847,759.251221 654.517822,770.977844 
	C659.901428,775.305664 661.765259,781.645020 664.486084,787.506470 
	C667.877563,794.812805 671.056885,802.219360 674.542175,809.479736 
	C676.552490,813.667542 677.638489,818.133972 678.915588,822.524536 
	C679.999268,826.250610 678.341003,829.450195 675.500000,832.000000 
"/>
<path fill="none" opacity="1.000000"  stroke-linecap="round" stroke-linejoin="round" stroke-width="5.000000"
	d="
M1060.500000,852.500000 
	C1055.219116,854.779541 1049.481079,854.081665 1043.980835,854.865173 
	C1031.313843,856.669556 1018.863037,859.163818 1007.032043,864.077148 
	C1003.075989,865.720093 998.686890,868.450012 998.774475,872.994690 
	C998.863770,877.630127 1002.635681,880.819214 1006.972839,883.052673 
	C1017.370239,888.407104 1028.671387,890.305969 1040.006958,891.952454 
	C1060.236450,894.890930 1080.627930,894.719116 1100.999634,894.470215 
	C1114.574463,894.304321 1128.077759,892.876648 1141.487671,890.915833 
	C1152.705322,889.275513 1164.055054,888.247620 1175.002197,885.007507 
	C1179.328125,883.727112 1183.560913,882.362305 1187.554321,880.095764 
	C1190.741577,878.286682 1192.991211,876.192932 1193.644165,872.131958 
	C1189.639282,866.076172 1183.139282,864.061218 1176.523804,861.926270 
	C1168.668823,859.391479 1160.379150,859.246948 1152.500000,857.000000 
"/>
<path fill="none" opacity="1.000000"  stroke-linecap="round" stroke-linejoin="round" stroke-width="5.000000"
	d="
M496.500000,117.500000 
	C486.168488,110.448006 477.975708,101.049835 468.948212,92.555031 
	C460.948120,85.027031 451.848694,79.131653 442.179932,73.680847 
	C432.264709,68.091118 424.528961,71.962082 416.555908,76.107529 
	C403.971741,82.650452 397.641693,94.401535 392.465973,106.986008 
	C384.855103,125.491417 381.026123,144.938889 377.430634,164.487244 
	C376.153076,171.433105 375.008850,178.375961 372.214325,185.089218 
	C369.732758,191.050690 365.675049,193.308899 359.995941,193.964783 
	C356.851959,194.327896 353.666656,194.333328 350.500000,194.499985 
"/>
<path fill="none" opacity="1.000000"  stroke-linecap="round" stroke-linejoin="round" stroke-width="5.000000"
	d="
M352.500000,276.000000 
	C351.070587,286.917572 347.800934,297.412964 344.932953,307.981812 
	C341.880341,319.230896 338.420532,330.375732 333.559113,341.026978 
	C333.195801,341.822937 332.715942,343.098907 332.398163,343.388123 
	C326.730988,348.545715 326.160187,356.100311 323.767517,362.598511 
	C321.632843,368.396088 325.291504,374.055634 328.547363,378.968628 
	C337.346130,392.245880 349.356384,402.065826 363.005951,409.989746 
	C378.041351,418.718201 394.256958,424.306030 411.515381,425.825439 
	C423.697144,426.897919 435.877838,426.035553 447.059601,419.603577 
	C452.022797,416.748657 454.166870,412.317230 455.351105,407.463684 
	C456.530609,402.629456 456.500000,397.500000 457.000000,392.500000 
"/>
<path fill="none" opacity="1.000000"  stroke-linecap="round" stroke-linejoin="round" stroke-width="6.000000"
	d="
M1485.500000,815.500000 
	C1481.166626,814.320374 1476.833374,815.514709 1472.500000,815.512878 
	C1424.000000,815.492554 1375.500000,815.500000 1327.000000,815.500000 
	C1296.500000,815.500000 1265.992432,815.079895 1235.502319,815.626648 
	C1208.830444,816.104858 1182.166016,815.725464 1155.500000,816.000000 
"/>
<path fill="none" opacity="1.000000"  stroke-linecap="round" stroke-linejoin="round" stroke-width="5.000000"
	d="
M929.500000,795.000000 
	C924.166687,794.329041 919.125488,793.546326 913.417236,794.509644 
	C907.787964,795.459595 900.823547,796.162048 895.402832,791.104187 
	C892.717529,788.598572 888.478638,789.297180 884.971558,788.655334 
	C881.562073,788.031189 877.981995,787.871582 874.491638,787.613220 
	C856.434204,786.276733 838.420715,784.642700 820.489685,782.071777 
	C817.346130,781.621094 814.088623,781.718262 811.437927,784.439514 
	C809.648804,786.276245 806.941162,786.000427 804.500000,786.000366 
	C776.833313,785.999695 749.142578,786.698364 721.508789,785.745361 
	C704.159729,785.147034 686.832336,785.383484 669.499207,785.039917 
	C668.016907,785.010559 666.394592,784.384460 665.000000,785.500000 
"/>
<path fill="none" opacity="1.000000"  stroke-linecap="round" stroke-linejoin="round" stroke-width="5.000000"
	d="
M508.500000,112.500000 
	C506.382599,115.044746 508.067963,117.875832 508.109894,120.498245 
	C508.270691,130.552063 505.347504,133.411636 495.005554,134.085449 
	C483.519104,134.833847 473.551178,130.552017 463.476776,126.052025 
	C456.159485,122.783562 449.050171,118.981827 441.008789,117.453766 
	C426.596802,114.715141 420.154572,116.841599 416.350403,129.956604 
	C413.963501,138.185333 412.470764,146.753433 408.507935,154.504059 
	C403.710938,163.886261 396.813171,170.865417 386.490723,173.969147 
	C386.230988,174.047256 385.833344,173.666656 385.500000,173.500000 
"/>
<path fill="none" opacity="1.000000"  stroke-linecap="round" stroke-linejoin="round" stroke-width="6.000000"
	d="
M1153.500000,773.000000 
	C1153.500000,767.636780 1152.510376,766.371338 1147.001831,764.494751 
	C1140.675293,762.339417 1134.098145,761.969604 1127.503784,761.451782 
	C1115.823608,760.534729 1104.133301,760.942078 1092.510986,761.673828 
	C1083.803467,762.222107 1074.995117,762.683228 1066.448853,765.335205 
	C1062.628540,766.520630 1060.782593,768.339294 1059.971802,771.993774 
	C1058.027222,780.759705 1058.288696,789.652222 1058.571899,798.497681 
	C1058.945923,810.173767 1059.839600,821.832947 1060.497314,833.500122 
	C1060.845093,839.666016 1060.450073,845.983765 1061.704224,851.957092 
	C1062.923706,857.764648 1064.557739,863.648132 1067.471069,869.015686 
	C1069.903320,873.497131 1073.788574,875.896484 1078.508179,876.964111 
	C1090.677368,879.716980 1103.069946,881.270081 1115.487061,880.328918 
	C1124.377930,879.654968 1133.374268,878.887695 1142.026367,876.081177 
	C1145.989624,874.795471 1147.579468,872.839661 1148.723145,868.559631 
	C1153.252075,851.610535 1153.903442,834.271545 1154.552856,816.992615 
	C1154.959229,806.178223 1156.445801,795.346069 1155.429565,784.506592 
	C1155.083862,780.820679 1155.018188,777.011841 1153.500000,773.500000 
"/>
<path fill="none" opacity="1.000000"  stroke-linecap="round" stroke-linejoin="round" stroke-width="5.000000"
	d="
M372.000000,278.500000 
	C370.738770,292.350525 369.709656,306.101196 372.339386,320.030334 
	C374.775665,332.934845 380.308624,343.946075 389.023865,353.478180 
	C400.661926,366.207001 414.235626,376.322296 429.978027,383.547882 
	C438.502350,387.460480 447.508423,390.709534 456.541565,391.556976 
	C464.579224,392.311066 473.088715,394.381592 480.938904,392.712646 
	C494.210327,389.891174 506.305115,384.322937 513.069519,371.035400 
	C518.714050,359.947662 519.732239,348.481323 517.494690,336.501007 
	C515.612122,326.421417 513.231323,316.458374 518.350830,306.423889 
	C519.993530,303.204102 519.655518,299.165009 518.048401,295.478912 
	C516.492126,291.909454 515.494995,288.097473 513.962585,284.516022 
	C511.589386,278.969727 509.816589,278.544769 505.554382,282.557770 
	C504.200775,283.832245 502.866333,283.298615 501.500000,283.500000 
"/>
<path fill="none" opacity="1.000000"  stroke-linecap="round" stroke-linejoin="round" stroke-width="5.000000"
	d="
M518.500000,146.500000 
	C522.858154,140.989563 521.862488,134.581818 520.868835,128.521500 
	C519.682922,121.288368 515.880920,115.531807 509.061005,111.885902 
	C506.713135,110.630737 505.864746,107.623268 504.984497,105.005211 
	C499.731903,89.382530 489.811646,77.949982 474.493103,71.516457 
	C462.032532,66.283241 449.068359,63.449821 435.504486,62.891033 
	C427.979462,62.581028 420.500671,62.909836 412.999847,62.926350 
	C402.617310,62.949215 393.277435,66.226425 383.936737,70.356964 
	C378.406281,72.802605 377.014740,78.203026 373.609344,82.095650 
	C362.149628,95.194878 355.786163,111.018486 351.042358,127.512184 
	C347.373810,140.267258 344.856323,153.245895 343.340576,166.481750 
	C342.381836,174.853683 342.605011,183.157532 342.500000,191.500000 
"/>
<path fill="none" opacity="1.000000"  stroke-linecap="round" stroke-linejoin="round" stroke-width="5.000000"
	d="
M555.500000,535.500000 
	C554.658752,559.575806 552.692566,583.583069 549.863708,607.483887 
	C547.750671,625.337402 545.920532,643.236938 543.241699,661.036377 
	C542.594910,665.334045 540.715637,670.024475 542.585449,674.463989 
	C543.580383,676.826172 541.130066,677.277466 540.922607,678.990601 
	C539.749329,688.676697 538.384033,698.340637 536.985474,707.997864 
	C535.634155,717.328796 534.619873,726.705688 533.251221,736.036865 
	C532.714539,739.695740 530.784851,743.584839 532.500000,747.500000 
"/>
<path fill="none" opacity="1.000000"  stroke-linecap="round" stroke-linejoin="round" stroke-width="5.000000"
	d="
M395.000000,203.000000 
	C404.837646,203.674942 414.293823,206.549347 423.986420,208.085602 
	C427.509552,208.644012 431.086700,209.652344 434.545929,210.220200 
	C439.060699,210.961349 438.896179,213.801102 438.902344,216.500229 
	C438.914856,221.999481 437.590973,227.345901 438.861145,233.031021 
	C441.801880,246.193130 449.793732,251.343643 460.506866,252.432526 
	C470.797485,253.478470 481.473755,245.841492 485.000763,235.500259 
	C486.329987,231.602966 487.241760,227.645996 487.548309,223.503571 
	C487.950439,218.069519 492.419006,215.324875 497.437683,217.635376 
	C498.978638,218.344803 500.655853,218.032394 502.000000,219.000000 
"/>
<path fill="none" opacity="1.000000"  stroke-linecap="round" stroke-linejoin="round" stroke-width="6.000000"
	d="
M520.500000,833.500000 
	C530.274719,836.626404 540.220032,838.596497 550.487244,839.627014 
	C571.795410,841.765564 593.156982,842.132507 614.494324,841.712280 
	C620.981201,841.584534 626.316528,841.956665 631.020874,846.478333 
	C631.703796,847.134766 632.638184,847.854248 633.506104,847.924011 
	C635.151672,848.056274 636.833313,849.195801 638.500000,848.000000 
"/>
<path fill="none" opacity="1.000000"  stroke-linecap="round" stroke-linejoin="round" stroke-width="5.000000"
	d="
M349.000000,85.000000 
	C346.407532,80.572098 341.419342,80.561646 337.456726,79.698792 
	C324.293732,76.832581 312.239532,79.147659 303.009552,90.008125 
	C295.333588,99.040062 294.961334,116.184402 302.581116,124.929321 
	C305.684631,128.491089 310.002808,130.554214 315.000000,130.500000 
"/>
<path fill="none" opacity="1.000000"  stroke-linecap="round" stroke-linejoin="round" stroke-width="6.000000"
	d="
M1066.500000,771.500000 
	C1075.260986,774.457336 1084.356812,776.089600 1093.503784,776.380310 
	C1113.407837,777.013062 1133.259888,775.750488 1153.000000,773.000000 
"/>
<path fill="none" opacity="1.000000"  stroke-linecap="round" stroke-linejoin="round" stroke-width="5.000000"
	d="
M376.000000,177.500000 
	C384.768311,180.359756 388.027130,187.634171 391.101593,195.460083 
	C394.933167,205.213135 394.995941,215.304062 395.661194,225.489471 
	C396.273773,234.867905 395.169281,243.703613 392.066895,252.523529 
	C388.570160,262.464539 381.793335,269.884064 374.472382,276.971466 
	C373.419098,277.991180 372.110931,278.117981 370.476440,277.570282 
	C364.659210,275.621185 358.489532,275.924408 352.547516,275.139954 
	C338.775208,273.321899 327.097168,267.572601 319.810364,254.102585 
	C309.778320,235.557846 312.006317,217.198837 318.061951,198.520081 
	C320.184692,191.972504 324.931274,186.979889 329.514862,182.013733 
	C331.640015,179.711212 334.031006,177.633850 335.000000,174.500000 
"/>
<path fill="none" opacity="1.000000"  stroke-linecap="round" stroke-linejoin="round" stroke-width="5.000000"
	d="
M498.000000,752.500000 
	C489.617432,767.231934 486.728119,783.214355 486.306244,799.995117 
	C486.153595,806.067810 487.807007,811.963074 487.037598,818.004761 
	C486.795227,819.908142 488.298798,821.347168 489.000000,823.000000 
"/>
<path fill="none" opacity="1.000000"  stroke-linecap="round" stroke-linejoin="round" stroke-width="5.000000"
	d="
M583.500000,781.500000 
	C590.701050,788.685181 599.284424,794.006775 608.050476,798.909729 
	C617.332458,804.101013 625.555359,810.509888 632.988953,818.010925 
	C640.206421,825.293945 647.313599,832.686157 654.514221,839.985962 
	C656.251648,841.747253 658.039001,843.508789 660.030579,844.957947 
	C662.865051,847.020447 665.768982,847.241089 668.516968,844.517151 
	C670.628540,842.423950 672.388550,839.843018 675.500000,839.000000 
"/>
<path fill="none" opacity="1.000000"  stroke-linecap="round" stroke-linejoin="round" stroke-width="6.000000"
	d="
M378.500000,204.500000 
	C382.586304,215.337952 382.679596,226.657944 382.488281,237.999802 
	C382.323883,247.743713 378.503265,256.188263 372.997192,263.998016 
	C371.828735,265.655365 370.755981,267.335510 371.000000,269.500000 
"/>
<path fill="none" opacity="1.000000"  stroke-linecap="round" stroke-linejoin="round" stroke-width="5.000000"
	d="
M396.000000,263.500000 
	C397.546234,275.265900 401.119385,286.203064 409.523102,294.977875 
	C416.694336,302.465851 425.456238,307.605072 434.993042,311.516937 
	C437.109558,312.385101 438.994232,313.935364 441.500000,313.500000 
"/>
<path fill="none" opacity="1.000000"  stroke-linecap="round" stroke-linejoin="round" stroke-width="5.000000"
	d="
M543.500000,676.000000 
	C548.296326,678.259277 550.275818,682.999573 552.957031,687.028564 
	C563.773315,703.281982 573.119629,720.374329 581.500000,738.000000 
"/>
<path fill="none" opacity="1.000000"  stroke-linecap="round" stroke-linejoin="round" stroke-width="5.000000"
	d="
M378.000000,74.000000 
	C374.730164,71.904907 371.641205,73.921043 369.058411,75.125290 
	C351.423584,83.347557 334.861572,93.158691 324.566711,110.539520 
	C319.930054,118.367569 316.256775,126.657272 315.442871,135.995026 
	C314.714417,144.352020 312.996796,152.644684 312.631775,161.005753 
	C312.208771,170.695312 313.744263,180.282944 317.029297,189.489548 
	C317.553680,190.959198 318.263855,192.464310 320.000000,193.000000 
"/>
<path fill="none" opacity="1.000000"  stroke-linecap="round" stroke-linejoin="round" stroke-width="5.000000"
	d="
M508.000000,129.500000 
	C517.404968,142.355408 521.890564,157.125610 525.053467,172.488998 
	C527.322266,183.509537 526.853699,194.476959 525.500000,205.500000 
"/>
<path fill="none" opacity="1.000000"  stroke-linecap="round" stroke-linejoin="round" stroke-width="5.000000"
	d="
M825.500000,724.500000 
	C817.418457,730.899292 814.489136,740.181030 812.098511,749.525208 
	C809.669189,759.020935 810.277222,768.803162 811.059631,778.495178 
	C811.174988,779.924500 811.718445,781.474121 813.000000,782.500000 
"/>
<path fill="none" opacity="1.000000"  stroke-linecap="round" stroke-linejoin="round" stroke-width="5.000000"
	d="
M511.999969,280.499969 
	C512.666626,279.833313 513.326477,279.159637 514.001099,278.501068 
	C519.873291,272.768738 521.565735,271.631226 518.472229,263.009979 
	C513.913147,250.304688 509.236725,237.640244 504.473633,225.009949 
	C501.629913,217.469193 505.062164,209.593109 513.030762,207.624420 
	C519.785767,205.955582 527.111145,203.958176 532.959778,210.038666 
	C538.901123,216.215454 540.416626,223.401016 538.670654,232.034515 
	C536.076294,244.863342 527.666626,250.464249 516.000000,253.000000 
"/>
<path fill="none" opacity="1.000000"  stroke-linecap="round" stroke-linejoin="round" stroke-width="5.000000"
	d="
M877.500000,745.500000 
	C884.468079,752.412048 892.961121,757.567383 899.539978,764.964417 
	C907.070557,773.431519 912.230652,783.524292 919.000000,792.500000 
"/>
<path fill="none" opacity="1.000000"  stroke-linecap="round" stroke-linejoin="round" stroke-width="5.000000"
	d="
M481.500000,282.500000 
	C465.068481,287.389740 452.473450,297.354095 442.952362,311.467865 
	C442.075806,312.767242 441.386444,313.936584 441.500000,315.500000 
"/>
<path fill="none" opacity="1.000000"  stroke-linecap="round" stroke-linejoin="round" stroke-width="5.000000"
	d="
M444.500000,206.500000 
	C455.166656,202.060486 465.857300,204.125595 476.490814,206.540436 
	C482.659393,207.941284 485.077911,213.563644 488.500000,218.000000 
"/>
<path fill="none" opacity="1.000000"  stroke-linecap="round" stroke-linejoin="round" stroke-width="5.000000"
	d="
M509.500000,309.500000 
	C505.241089,305.723602 499.788452,307.717194 494.999908,306.500336 
	C487.536926,304.603790 481.141754,308.184753 474.500000,310.500000 
"/>
<path fill="none" opacity="1.000000"  stroke-linecap="round" stroke-linejoin="round" stroke-width="5.000000"
	d="
M909.500000,741.500000 
	C918.000000,752.666687 926.500000,763.833313 935.000000,775.000000 
"/>
<path fill="none" opacity="1.000000"  stroke-linecap="round" stroke-linejoin="round" stroke-width="5.000000"
	d="
M506.500000,280.500000 
	C503.283081,275.930634 498.023773,276.154602 493.477142,275.770996 
	C491.096588,275.570099 487.953186,275.361389 485.500000,277.000000 
"/>
<path fill="none" opacity="1.000000"  stroke-linecap="round" stroke-linejoin="round" stroke-width="5.000000"
	d="
M647.999939,835.500000 
	C645.999939,839.500000 643.999939,843.500000 641.999939,847.500000 
"/>
<path fill="none" opacity="1.000000"  stroke-linecap="round" stroke-linejoin="round" stroke-width="3.000000"
	d="
M927.000000,779.000000 
	C928.633240,780.636230 929.540588,783.119263 932.250000,783.500000 
"/>
</svg>