<svg xmlns="http://www.w3.org/2000/svg" xmlns:xlink="http://www.w3.org/1999/xlink" version="1.1" width="1000" height="1000" viewBox="0 0 1000 1000" xml:space="preserve">
<desc>Created with Fabric.js 3.5.0</desc>
<defs>
</defs>
<rect x="0" y="0" width="100%" height="100%" fill="rgba(0,0,0,0)"/>
<g transform="matrix(1.7756 0 0 1.7756 500.0081 500.0081)" id="660594">
<g style="" vector-effect="non-scaling-stroke">
		<g transform="matrix(1 0 0 1 -198.752 80)" id="Capa_1">
<rect style="stroke: none; stroke-width: 1; stroke-dasharray: none; stroke-linecap: butt; stroke-dashoffset: 0; stroke-linejoin: miter; stroke-miterlimit: 4; is-custom-font: none; font-file-url: none; fill: rgb(210,25,25); fill-rule: nonzero; opacity: 1;" x="-57.248" y="-176" rx="0" ry="0" width="114.496" height="352"/>
</g>
		<g transform="matrix(1 0 0 1 80 80)" id="Capa_1">
<path style="stroke: none; stroke-width: 1; stroke-dasharray: none; stroke-linecap: butt; stroke-dashoffset: 0; stroke-linejoin: miter; stroke-miterlimit: 4; is-custom-font: none; font-file-url: none; fill: rgb(210,25,25); fill-rule: nonzero; opacity: 1;" transform=" translate(-336, -336)" d="M 426.368 164.128 c -1.216 -0.384 -2.368 -0.8 -3.648 -1.152 c -1.536 -0.352 -3.072 -0.64 -4.64 -0.896 c -6.08 -1.216 -12.736 -2.08 -20.544 -2.08 l 0 0 l 0 0 c -66.752 0 -109.088 48.544 -123.04 67.296 V 160 H 160 v 352 h 114.496 V 320 c 0 0 86.528 -120.512 123.04 -32 c 0 79.008 0 224 0 224 H 512 V 274.464 C 512 221.28 475.552 176.96 426.368 164.128 z" stroke-linecap="round"/>
</g>
		<g transform="matrix(1 0 0 1 -200 -200)" id="Capa_1">
<circle style="stroke: none; stroke-width: 1; stroke-dasharray: none; stroke-linecap: butt; stroke-dashoffset: 0; stroke-linejoin: miter; stroke-miterlimit: 4; is-custom-font: none; font-file-url: none; fill: rgb(210,25,25); fill-rule: nonzero; opacity: 1;" cx="0" cy="0" r="56"/>
</g>
</g>
</g>
</svg>