<?xml version="1.0" standalone="no"?>
<!DOCTYPE svg PUBLIC "-//W3C//DTD SVG 20010904//EN"
 "http://www.w3.org/TR/2001/REC-SVG-20010904/DTD/svg10.dtd">
<svg version="1.0" xmlns="http://www.w3.org/2000/svg"
 width="984.000000pt" height="1599.000000pt" viewBox="0 0 984.000000 1599.000000"
 preserveAspectRatio="xMidYMid meet" style="background-color:red;border-radius:2vmax" >

<g transform="translate(0.000000,1599.000000) scale(0.100000,-0.100000)"
fill="#000000" stroke="none">
<path d="M4434 15898 c-37 -51 -105 -140 -151 -197 -46 -57 -86 -115 -89 -130
-4 -14 -24 -42 -46 -61 -27 -24 -59 -72 -98 -150 -32 -63 -75 -147 -95 -186
-46 -92 -63 -185 -42 -235 13 -32 13 -45 -3 -125 -9 -49 -23 -125 -29 -169 -7
-44 -17 -84 -22 -90 -5 -5 -9 -39 -9 -77 0 -72 9 -91 93 -215 19 -29 40 -76
47 -105 6 -29 20 -82 31 -118 17 -55 19 -80 14 -160 -8 -112 10 -239 50 -343
14 -37 25 -79 25 -93 0 -37 88 -300 105 -314 16 -13 57 -143 74 -236 11 -61
62 -197 106 -284 12 -25 26 -67 30 -95 4 -27 19 -79 35 -115 16 -37 37 -118
49 -190 23 -130 36 -164 102 -270 83 -133 82 -128 80 -369 -2 -212 10 -338 41
-426 6 -16 13 -45 15 -64 4 -23 14 -38 34 -50 32 -18 35 -29 16 -55 -11 -15
-19 -16 -57 -7 -94 22 -186 6 -208 -36 -5 -10 -24 -70 -41 -133 -38 -139 -43
-151 -82 -200 -28 -34 -31 -45 -27 -84 4 -28 1 -49 -6 -55 -11 -8 -59 -24
-236 -76 -102 -29 -175 -71 -295 -169 -106 -87 -301 -192 -449 -242 -141 -48
-280 -125 -342 -189 -54 -57 -103 -86 -174 -105 -65 -17 -117 -43 -222 -108
-51 -32 -124 -72 -163 -89 -38 -17 -91 -40 -116 -52 -25 -11 -69 -29 -97 -40
-90 -36 -186 -88 -240 -130 -66 -52 -111 -113 -162 -219 -22 -45 -46 -85 -55
-88 -8 -3 -56 -52 -107 -108 -77 -85 -99 -117 -125 -182 -22 -53 -57 -109
-107 -173 -40 -51 -80 -105 -87 -120 -18 -34 -80 -133 -93 -148 -6 -7 -33 -43
-61 -80 -67 -91 -143 -166 -191 -191 -22 -11 -83 -37 -134 -58 -142 -55 -165
-69 -249 -150 -43 -41 -83 -74 -88 -74 -5 0 -21 -12 -35 -28 -64 -70 -270
-230 -352 -272 -16 -8 -67 -52 -113 -97 l-83 -82 0 -1621 0 -1621 68 38 c37
20 72 41 77 46 30 27 340 178 430 210 133 48 320 128 331 143 6 8 21 14 33 14
12 0 29 5 39 11 11 7 29 8 51 2 28 -7 40 -19 64 -63 16 -30 54 -81 83 -112 49
-52 104 -144 104 -175 0 -7 4 -13 10 -13 5 0 21 -12 35 -27 l25 -28 0 27 c0
21 15 38 36 38 2 0 12 -17 23 -38 20 -36 20 -36 21 -9 0 15 3 27 6 27 12 0 60
-65 72 -99 15 -41 48 -80 80 -92 13 -5 31 -23 40 -41 9 -17 31 -47 48 -67 17
-20 44 -56 61 -81 17 -25 65 -79 107 -120 70 -68 76 -72 76 -48 0 21 6 27 34
32 49 9 66 -1 66 -39 0 -19 6 -40 13 -47 8 -7 19 -24 26 -36 9 -18 16 -21 26
-12 9 8 14 7 18 -5 5 -13 14 -12 62 7 48 18 61 19 94 9 32 -9 38 -15 34 -31
-4 -17 0 -20 24 -20 21 0 39 -10 62 -35 27 -31 51 -45 51 -30 0 33 -82 104
-140 120 -14 4 -45 26 -70 49 -86 81 -175 149 -228 174 -29 13 -57 33 -62 43
-6 10 -47 45 -92 77 -46 33 -99 76 -117 96 -19 20 -40 36 -47 36 -6 0 -65 55
-131 123 -119 123 -473 465 -494 478 -8 4 -9 25 -5 62 7 51 5 57 -23 89 -16
19 -55 47 -86 62 -31 16 -61 38 -67 50 -6 12 -26 37 -45 58 -27 28 -36 47 -41
85 -3 32 -14 60 -34 86 -23 29 -28 41 -19 51 19 23 59 25 223 11 157 -13 209
-10 246 16 21 15 212 213 257 267 15 18 55 53 89 77 33 24 76 60 95 80 19 19
37 35 42 35 18 0 240 273 289 356 29 49 58 94 64 99 7 6 31 42 55 80 42 68
108 131 208 203 54 38 96 42 117 10 18 -29 79 -337 105 -533 23 -172 68 -434
106 -614 27 -132 131 -509 145 -526 4 -5 22 -61 39 -124 21 -74 47 -140 76
-190 24 -42 62 -116 85 -166 67 -146 131 -273 149 -292 21 -23 53 -81 86 -157
35 -82 43 -181 44 -540 1 -291 2 -310 21 -341 23 -37 70 -70 150 -107 30 -13
73 -42 95 -64 22 -21 72 -60 110 -85 84 -56 118 -91 179 -186 49 -75 61 -85
70 -55 25 85 18 122 -49 240 -47 82 -88 117 -131 109 -32 -6 -31 11 1 23 48
18 157 -52 218 -140 28 -40 31 -53 38 -153 8 -121 12 -128 99 -182 158 -97
337 -255 426 -378 82 -112 182 -225 224 -252 17 -11 58 -55 92 -97 33 -43 81
-90 107 -106 84 -53 205 -110 276 -131 85 -25 131 -48 170 -85 75 -71 89 -76
284 -93 141 -13 192 -14 229 -5 26 6 92 14 147 17 55 4 125 13 156 22 52 14
59 14 90 -3 27 -15 64 -19 187 -22 136 -4 154 -6 162 -23 8 -14 5 -23 -11 -38
-18 -17 -31 -19 -122 -14 -74 3 -98 2 -87 -6 8 -6 33 -11 55 -11 51 0 77 -15
43 -23 -12 -4 -40 -7 -60 -7 -37 0 -38 -1 -38 -35 0 -35 1 -36 33 -31 191 30
391 68 440 82 14 4 17 -1 17 -34 0 -22 -7 -79 -16 -128 -18 -99 -20 -132 -10
-142 14 -14 24 23 40 156 24 191 26 196 61 200 16 2 34 10 40 18 6 9 36 19 67
23 84 11 146 56 180 130 15 32 18 54 13 80 -4 20 -8 75 -9 123 0 47 -4 89 -8
93 -13 14 -28 -7 -28 -39 0 -45 -11 -96 -20 -96 -5 0 -11 38 -15 84 -6 71 -4
96 14 154 59 195 48 584 -20 714 -5 9 -18 65 -30 125 -26 136 -31 342 -9 423
18 67 20 393 2 455 -19 64 -16 497 3 565 11 37 19 134 25 290 5 129 14 271 20
315 6 44 13 127 16 185 2 58 7 157 10 220 3 63 13 149 24 190 10 41 23 103 30
136 18 91 20 92 80 64 57 -27 70 -44 70 -89 0 -36 8 -38 38 -11 38 36 64 99
65 159 1 48 -3 62 -31 100 -31 42 -32 48 -26 102 5 49 3 64 -16 95 -18 32 -21
46 -15 96 6 48 4 63 -14 91 -12 19 -21 41 -21 49 0 15 73 86 123 120 44 30 67
95 76 214 5 60 15 149 22 197 11 79 11 99 -5 176 -22 109 -11 246 27 337 74
175 98 257 112 372 39 319 40 345 16 513 -13 96 -21 203 -21 280 1 198 -15
376 -39 436 -28 72 -75 163 -115 226 -41 63 -217 235 -307 300 -36 26 -76 61
-88 77 -12 17 -40 42 -63 56 -52 33 -218 204 -218 225 0 9 6 22 14 28 8 7 21
27 30 46 16 34 16 36 -15 97 -17 35 -42 91 -55 126 -34 89 -79 176 -112 214
-16 18 -58 76 -94 129 -37 52 -73 101 -81 108 -20 16 -31 -3 -70 -129 -26 -84
-31 -113 -34 -251 l-5 -155 36 -88 c32 -75 36 -95 30 -135 -4 -25 -8 -49 -10
-53 -2 -3 -26 1 -54 10 -36 13 -52 24 -61 44 -6 15 -19 30 -30 33 -10 3 -32
24 -50 46 -17 22 -75 78 -128 124 -74 64 -109 104 -151 171 -30 48 -91 126
-136 173 -44 47 -115 127 -157 176 -98 115 -99 116 -263 269 -77 71 -179 173
-229 226 -88 96 -245 283 -255 305 -3 6 -17 26 -31 45 -15 19 -29 51 -32 70
-3 19 -13 76 -21 125 -26 151 -20 195 27 195 17 0 18 5 13 43 -8 55 -8 66 0
104 5 28 2 36 -32 67 -31 28 -35 37 -26 49 14 17 2 130 -18 168 -8 14 -14 94
-18 223 -3 125 -9 206 -16 215 -6 7 -29 25 -51 39 -22 13 -67 52 -100 86 -34
33 -84 82 -112 108 -62 58 -82 98 -128 258 -82 289 -64 541 45 634 42 35 128
53 180 37 47 -14 199 -114 253 -166 20 -20 56 -42 79 -48 35 -10 43 -18 54
-51 8 -21 27 -53 44 -72 18 -21 30 -46 30 -63 0 -40 35 -81 70 -81 25 0 28 -4
35 -47 4 -26 10 -107 14 -179 5 -90 13 -140 23 -156 20 -32 57 -141 59 -175 2
-50 -12 -197 -23 -224 -5 -15 -32 -42 -59 -60 -29 -21 -53 -46 -59 -64 -10
-28 -8 -33 28 -65 21 -19 55 -48 75 -63 52 -39 50 -62 -5 -53 -24 4 -53 10
-66 13 -21 5 -23 3 -20 -28 3 -30 6 -34 30 -31 19 2 30 -4 39 -19 7 -15 8 -24
1 -28 -13 -8 -32 -56 -32 -81 0 -10 11 -32 25 -48 14 -17 28 -45 32 -63 3 -19
40 -78 84 -135 42 -56 80 -111 84 -122 5 -18 155 -132 172 -132 3 0 30 -20 59
-45 29 -25 90 -64 136 -87 46 -22 103 -54 128 -72 25 -17 71 -43 103 -58 32
-15 78 -42 102 -59 43 -31 46 -31 89 -19 54 15 63 10 72 -38 10 -54 20 -63 64
-56 34 6 38 4 44 -20 5 -19 13 -26 31 -26 19 0 23 -4 18 -17 -5 -12 -2 -15 8
-10 8 3 57 24 109 47 91 40 97 42 145 31 28 -6 138 -14 245 -17 184 -7 197 -6
235 14 63 32 143 96 174 138 29 40 55 103 46 112 -3 3 -31 -22 -63 -55 -42
-44 -70 -64 -99 -72 -22 -6 -46 -18 -53 -26 -18 -21 -63 -18 -112 7 -27 14
-59 23 -85 22 -38 -1 -43 2 -43 21 0 13 -7 25 -15 29 -8 3 -15 15 -15 26 0 14
-7 20 -24 20 -13 0 -27 8 -30 17 -6 15 -8 14 -21 -4 -10 -14 -22 -19 -44 -15
-22 3 -33 0 -37 -12 -9 -23 -24 -10 -24 21 0 16 -7 27 -20 30 -14 4 -20 14
-20 35 0 32 -28 49 -101 63 -36 7 -37 6 -65 -46 -42 -77 -54 -75 -54 11 0 45
-4 69 -10 65 -5 -3 -10 -18 -10 -32 0 -18 -16 -42 -49 -75 -40 -40 -55 -49
-78 -46 -42 5 -40 32 3 57 43 25 41 34 -4 22 -47 -14 -42 14 6 34 76 33 87 41
107 77 l19 36 -24 26 c-14 14 -28 26 -32 26 -4 0 -23 -31 -43 -69 -19 -38 -40
-71 -47 -73 -11 -4 -75 17 -86 27 -2 2 1 12 7 24 7 13 8 22 1 26 -5 3 -10 17
-10 31 0 19 -5 24 -24 24 -36 0 -48 -22 -41 -74 7 -42 6 -46 -14 -46 -11 0
-42 11 -68 24 -27 14 -67 30 -91 37 -65 19 -71 33 -32 74 38 39 78 49 60 16
-5 -11 -10 -27 -10 -36 0 -22 32 -12 83 25 l38 28 -29 7 c-16 3 -40 17 -52 31
-17 17 -34 24 -62 24 -37 0 -38 -1 -38 -34 0 -19 -4 -37 -9 -41 -16 -9 -33 33
-38 96 -5 56 -7 58 -29 53 -19 -5 -24 -2 -24 13 0 10 9 24 20 31 33 20 23 29
-37 36 l-58 6 0 45 c0 33 4 45 17 48 29 8 40 76 23 134 -16 54 -38 82 -50 63
-3 -5 -3 -47 1 -91 5 -66 4 -81 -7 -77 -7 2 -17 20 -22 39 l-9 34 -18 -23
c-10 -12 -20 -22 -23 -22 -3 0 -14 15 -24 33 -18 30 -19 37 -6 77 18 60 32
120 27 120 -2 0 -20 -11 -40 -25 -20 -14 -41 -25 -45 -25 -5 0 -19 18 -31 40
-24 41 -32 47 -43 30 -11 -18 -23 -11 -18 11 3 11 0 31 -7 44 -9 17 -10 31 -1
56 5 19 22 79 36 133 20 78 23 101 13 108 -21 13 -24 10 -42 -47 -18 -57 -24
-63 -44 -43 -20 20 -14 75 14 131 28 55 29 68 18 225 -5 79 -4 92 10 92 11 0
16 -13 18 -57 2 -37 8 -58 17 -61 19 -6 7 80 -21 156 -19 51 -26 100 -30 222
-1 19 9 67 21 105 35 109 43 164 36 245 -4 41 -9 131 -11 199 -3 118 -2 126
22 167 14 24 30 44 35 44 6 0 48 29 95 65 48 36 103 69 127 76 61 16 97 31
110 43 7 6 41 29 77 50 36 22 86 59 112 83 51 46 77 52 123 29 40 -21 201 -30
281 -17 76 14 167 49 234 91 25 15 60 31 77 35 24 5 43 21 70 57 78 103 221
223 280 234 19 4 46 1 63 -6 28 -11 35 -9 104 34 40 25 85 46 99 46 22 0 27
-6 33 -35 6 -34 7 -35 25 -19 18 16 20 16 37 1 22 -20 63 -22 80 -4 8 7 42 12
85 13 40 1 78 3 86 5 23 6 60 -110 72 -225 10 -106 22 -161 39 -186 9 -13 12
-12 22 4 6 11 31 38 56 61 41 39 46 47 50 99 3 33 -1 68 -8 86 -10 25 -10 34
3 53 14 22 14 26 -5 55 -14 23 -17 36 -10 49 8 13 6 20 -6 29 -15 11 -14 14
11 23 16 6 54 11 86 11 l59 0 77 74 c64 62 80 73 94 64 14 -8 27 -4 63 22 43
30 46 35 36 59 -7 18 -6 42 3 78 11 47 16 54 50 67 22 9 39 20 39 26 0 13 -16
13 -42 -1 -11 -6 -21 -9 -24 -7 -6 7 40 68 52 68 13 0 58 47 73 77 6 13 9 34
5 48 -5 21 -9 23 -27 14 -16 -9 -23 -8 -31 4 -6 8 -17 24 -25 35 -8 12 -25 23
-37 26 -39 10 -47 40 -41 149 5 91 3 103 -18 143 -13 24 -37 55 -53 69 -17 14
-38 46 -48 70 -9 25 -20 45 -25 45 -5 0 -13 -18 -19 -40 -6 -22 -15 -40 -19
-40 -16 0 -40 77 -52 166 -13 96 -33 144 -52 125 -9 -9 -9 -14 1 -20 8 -4 16
-28 19 -52 5 -39 4 -42 -9 -29 -9 8 -26 45 -38 82 l-23 67 -47 -6 -46 -5 -50
68 c-27 38 -53 77 -57 87 -11 30 -27 19 -27 -19 0 -31 -2 -35 -15 -24 -8 7
-15 21 -15 32 0 11 -5 28 -10 39 -11 19 -40 19 -1699 19 l-1688 0 -69 -92z
m2261 -7372 c39 -17 75 -68 75 -108 0 -39 -31 -86 -69 -104 -31 -15 -37 -15
-67 -1 -23 11 -40 31 -54 61 -53 117 7 197 115 152z m265 -1498 c23 -44 24
-50 12 -95 -17 -63 -37 -83 -82 -83 -47 0 -70 18 -79 60 -12 57 3 111 39 143
47 42 78 34 110 -25z m118 -1470 c16 -19 25 -83 17 -118 -10 -44 -61 -100 -92
-100 -38 0 -59 59 -45 127 15 74 37 103 77 103 18 0 37 -6 43 -12z m-5800
-1375 c-4 -22 -22 -20 -26 1 -2 10 3 16 13 16 10 0 15 -7 13 -17z m5742 -32
c14 -27 12 -131 -3 -161 -14 -27 -36 -35 -73 -26 -22 6 -24 11 -24 74 0 81 25
132 65 132 14 0 29 -8 35 -19z m-5140 -591 c0 -5 -4 -10 -10 -10 -5 0 -10 5
-10 10 0 6 5 10 10 10 6 0 10 -4 10 -10z m214 -71 c-3 -5 -10 -7 -15 -3 -5 3
-7 10 -3 15 3 5 10 7 15 3 5 -3 7 -10 3 -15z m46 -49 c-12 -23 -42 -26 -59 -6
-10 12 -7 15 16 19 55 8 54 8 43 -13z m60 6 c0 -18 -15 -36 -31 -36 -22 0 -24
11 -7 28 11 11 38 17 38 8z m1470 -786 c0 -5 -9 -10 -20 -10 -11 0 -20 5 -20
10 0 6 9 10 20 10 11 0 20 -4 20 -10z m3318 -22 c15 -15 16 -115 1 -157 -15
-42 -41 -56 -62 -33 -34 39 -33 111 3 170 21 34 38 40 58 20z m78 -1413 c16
-38 19 -135 5 -135 -17 0 -50 51 -57 86 -6 31 14 84 32 84 3 0 12 -16 20 -35z"/>
<path d="M6637 8444 c-9 -9 4 -35 14 -28 5 3 9 12 9 20 0 14 -12 19 -23 8z"/>
<path d="M6552 13730 c-18 -4 -41 -15 -50 -23 -9 -8 -47 -29 -83 -47 -36 -17
-82 -44 -102 -61 -34 -28 -96 -134 -84 -145 2 -3 35 9 72 25 43 20 97 34 151
41 46 6 94 14 107 19 70 27 394 -21 473 -69 30 -19 44 -21 96 -16 98 12 108
18 108 71 0 32 4 45 14 45 35 0 60 -57 54 -125 -3 -28 -1 -30 27 -28 17 1 40
8 53 15 18 9 22 17 17 40 -5 19 0 38 14 62 14 22 21 50 21 83 0 44 -3 51 -25
61 -34 16 -35 15 -35 -8 0 -19 -36 -60 -52 -60 -4 0 -8 11 -8 25 0 14 -11 37
-24 50 -24 24 -26 24 -160 18 -115 -5 -146 -3 -196 12 -60 18 -60 18 -83 -3
-30 -29 -39 -28 -31 3 l6 25 -123 -1 c-68 -1 -139 -5 -157 -9z"/>
<path d="M7835 13578 c-47 -30 -62 -51 -93 -141 -11 -31 -41 -83 -66 -114 -45
-58 -72 -135 -60 -167 8 -21 9 -20 52 9 20 14 48 25 62 25 22 0 21 -3 -15 -23
-33 -18 -40 -28 -40 -52 0 -25 4 -31 28 -33 23 -3 27 0 27 22 0 35 22 33 43
-3 35 -59 15 -94 -49 -85 l-39 5 24 -20 c31 -28 87 -28 94 -2 4 18 7 18 43 6
22 -8 53 -14 71 -15 26 0 30 3 26 20 -4 13 0 20 10 20 32 0 38 74 6 90 -15 8
-17 15 -10 24 13 16 -38 68 -89 91 -19 8 -42 20 -51 27 -13 9 -32 6 -88 -15
-39 -15 -71 -22 -71 -17 0 14 58 48 90 54 14 2 70 12 124 22 l99 18 18 -22
c23 -29 32 -28 63 9 31 36 29 59 -14 202 l-27 90 -61 1 c-52 2 -69 -2 -107
-26z m-25 -378 c0 -5 -4 -10 -10 -10 -5 0 -10 5 -10 10 0 6 5 10 10 10 6 0 10
-4 10 -10z m64 -66 c22 -21 20 -37 -7 -62 -28 -27 -37 -20 -37 28 0 52 15 64
44 34z"/>
<path d="M6915 13400 c-3 -5 -30 -10 -58 -10 -29 0 -80 -7 -114 -15 -69 -16
-186 -66 -197 -84 -10 -16 -5 -15 95 25 64 24 104 34 132 32 39 -3 39 -3 16
-15 -13 -6 -75 -30 -138 -52 -123 -44 -181 -80 -181 -113 0 -18 4 -20 31 -14
17 3 70 6 118 6 77 1 84 2 66 15 -56 40 -59 57 -15 75 28 11 33 10 54 -9 27
-25 37 -26 76 -6 18 9 30 24 30 35 0 11 6 20 13 20 40 0 51 -69 15 -94 -12 -9
-37 -16 -55 -16 -40 0 -50 -15 -21 -32 26 -14 321 -25 301 -11 -7 5 -17 50
-22 102 -11 105 -28 139 -72 148 -16 3 -32 10 -35 14 -7 12 -31 11 -39 -1z
m55 -168 c0 -28 -7 -45 -25 -62 l-25 -23 0 36 c0 47 16 87 35 87 11 0 15 -11
15 -38z"/>
<path d="M6473 13265 c-3 -9 -3 -18 0 -21 7 -8 47 15 47 26 0 16 -40 11 -47
-5z"/>
<path d="M4565 13005 c-16 -51 -14 -49 -34 -31 -37 34 -38 -10 -5 -209 17 -99
30 -135 51 -135 15 0 17 22 4 36 -6 5 -14 36 -19 69 -11 66 -3 129 27 215 10
30 17 58 14 63 -7 13 -33 8 -38 -8z"/>
<path d="M4880 12920 c-8 -5 -29 -10 -47 -10 -22 0 -37 -7 -48 -22 -15 -22
-15 -23 15 -26 24 -3 30 -8 30 -28 0 -36 -45 -78 -73 -69 -12 4 -38 8 -57 9
l-35 1 2 -49 c1 -30 9 -59 20 -75 24 -32 98 -71 136 -71 15 0 61 -18 101 -40
85 -47 143 -53 176 -20 11 11 20 24 20 28 0 4 -23 33 -51 63 -27 29 -55 65
-60 78 -9 22 -11 23 -25 9 -9 -8 -18 -34 -21 -57 -7 -52 -18 -59 -35 -24 -15
32 -49 36 -106 12 -31 -13 -35 -12 -48 5 -26 37 -16 59 61 126 76 67 95 102
80 149 -7 23 -13 25 -35 11z"/>
<path d="M7384 12441 c-50 -23 -59 -35 -38 -52 12 -10 28 -10 80 0 36 6 87 9
115 5 49 -7 51 -6 47 16 -6 47 -129 65 -204 31z"/>
<path d="M7315 12223 c-16 -9 -58 -38 -93 -64 -34 -27 -80 -53 -101 -59 -21
-5 -90 -35 -155 -65 -141 -68 -236 -149 -236 -203 0 -18 2 -32 4 -32 2 0 27
20 56 44 40 34 64 46 112 56 84 16 188 49 188 59 0 9 110 61 129 61 7 0 9 -9
6 -23 -5 -18 0 -24 24 -33 16 -7 33 -9 38 -5 4 4 51 18 104 31 l95 23 32 -23
c30 -22 35 -23 69 -11 35 13 38 13 59 -15 13 -15 34 -49 48 -74 24 -45 25 -48
11 -100 -8 -30 -12 -56 -9 -59 11 -11 60 17 72 41 7 15 15 62 19 106 l6 78
-62 110 c-33 60 -72 122 -85 138 l-23 30 -33 -37 c-31 -36 -60 -48 -60 -27 0
6 -20 19 -44 30 -24 10 -47 23 -50 29 -11 16 -87 12 -121 -6z"/>
<path d="M6916 11781 c-10 -16 1 -29 44 -51 71 -36 230 -20 230 24 0 10 -28
15 -107 20 -60 3 -120 9 -134 12 -15 3 -30 1 -33 -5z"/>
<path d="M7296 11781 c-10 -15 127 -54 212 -59 71 -4 82 -2 82 12 0 9 -8 16
-17 17 -61 3 -115 11 -179 24 -85 17 -91 18 -98 6z"/>
<path d="M5977 11523 c-14 -13 -6 -71 12 -94 22 -28 38 -20 22 9 -6 12 -11 31
-11 44 0 27 -14 51 -23 41z"/>
<path d="M46 3352 c-3 -6 1 -15 8 -21 8 -7 17 -8 20 -3 3 6 -1 15 -8 21 -8 7
-17 8 -20 3z"/>
<path d="M202 3347 c-22 -26 -30 -62 -18 -78 14 -21 96 -62 104 -54 4 4 -9 20
-28 36 -35 29 -35 29 -8 23 l28 -6 -14 33 c-18 43 -48 65 -64 46z"/>
<path d="M2530 3231 c0 -15 42 -41 53 -34 6 4 0 14 -12 25 -25 20 -41 23 -41
9z"/>
<path d="M2647 3138 c10 -55 36 -72 73 -48 12 8 9 15 -20 45 -44 45 -62 46
-53 3z"/>
<path d="M547 3100 c-13 -15 -24 -19 -44 -14 -19 5 -24 4 -19 -5 11 -18 72
-53 166 -96 47 -22 88 -44 92 -50 4 -5 11 -6 15 -1 4 4 -5 19 -22 33 -19 16
-26 27 -17 30 6 2 12 10 12 17 0 10 -13 12 -48 8 -69 -6 -110 16 -114 63 -3
36 -3 36 -21 15z"/>
<path d="M2750 3095 c0 -16 16 -20 24 -6 3 5 -1 11 -9 15 -9 3 -15 0 -15 -9z"/>
<path d="M2830 3040 c0 -5 5 -10 10 -10 6 0 10 5 10 10 0 6 -4 10 -10 10 -5 0
-10 -4 -10 -10z"/>
<path d="M816 2925 c-10 -8 -15 -18 -12 -23 8 -13 97 -55 103 -49 7 8 -16 40
-46 63 -23 19 -29 20 -45 9z"/>
<path d="M1062 2799 c3 -23 33 -48 43 -37 3 3 3 17 -1 32 -8 33 -47 38 -42 5z"/>
<path d="M1187 2774 c-10 -10 -9 -44 2 -44 5 0 16 -3 25 -6 9 -3 16 -2 16 4 0
16 -35 54 -43 46z"/>
<path d="M1320 2710 c0 -5 5 -10 10 -10 6 0 10 5 10 10 0 6 -4 10 -10 10 -5 0
-10 -4 -10 -10z"/>
<path d="M1397 2674 c-11 -11 5 -34 24 -34 22 0 24 11 7 28 -13 13 -22 15 -31
6z"/>
<path d="M2002 2428 c7 -21 73 -47 153 -63 41 -7 83 -19 94 -24 25 -14 41 -14
41 -1 0 14 -45 32 -170 69 -118 35 -123 36 -118 19z"/>
<path d="M2360 2315 c0 -8 5 -15 10 -15 6 0 10 7 10 15 0 8 -4 15 -10 15 -5 0
-10 -7 -10 -15z"/>
<path d="M2815 2119 c-10 -15 3 -25 16 -12 7 7 7 13 1 17 -6 3 -14 1 -17 -5z"/>
<path d="M2925 2041 c-3 -5 3 -12 13 -15 15 -5 20 -24 29 -125 13 -132 29
-180 76 -229 59 -62 68 -59 37 16 -27 64 -34 103 -30 167 1 25 4 22 18 -24 18
-61 63 -111 169 -188 l62 -44 60 26 c33 15 67 35 76 45 15 16 13 18 -27 24
-37 6 -56 20 -148 112 -58 57 -132 120 -165 140 -33 19 -73 51 -88 70 -28 33
-69 46 -82 25z"/>
<path d="M3203 1573 c-7 -2 -13 -9 -13 -14 0 -12 57 -12 65 1 3 6 2 10 -4 10
-5 0 -15 2 -23 4 -7 3 -19 2 -25 -1z"/>
<path d="M7250 1104 c0 -8 5 -12 10 -9 6 4 8 11 5 16 -9 14 -15 11 -15 -7z"/>
<path d="M4360 1069 c-83 -12 -174 -44 -227 -80 -66 -44 -180 -178 -216 -252
-53 -112 -54 -101 21 -148 120 -76 215 -119 264 -119 24 0 48 4 54 9 5 5 23
11 39 13 l30 4 -28 14 -28 14 22 12 c22 11 22 12 -9 19 -58 12 -37 46 41 65
46 12 56 30 16 30 -37 0 -9 20 29 21 l37 1 -34 14 c-31 14 -32 16 -17 33 14
16 15 19 2 24 -24 9 -8 47 20 47 30 0 30 7 2 37 -25 27 -8 31 32 8 35 -20 46
-18 27 3 -10 10 -17 26 -17 35 0 11 -8 17 -21 17 -17 0 -20 5 -16 21 3 12 0
22 -9 26 -19 7 -18 23 1 23 8 0 15 4 15 9 0 14 -23 19 -47 10 -14 -5 -23 -5
-23 1 0 20 54 23 99 5 101 -39 315 -108 471 -151 91 -25 167 -49 170 -53 9
-13 154 -51 193 -51 47 0 40 15 -13 31 -22 7 -40 15 -40 19 0 4 -19 13 -42 19
-45 14 -66 23 -184 84 -57 30 -83 37 -127 37 -52 0 -57 2 -90 40 -19 22 -41
40 -50 40 -9 0 -14 6 -12 13 9 23 -36 38 -158 52 -67 8 -122 14 -122 14 0 -1
-25 -5 -55 -10z"/>
<path d="M7142 1017 c-29 -21 -39 -33 -29 -35 22 -5 74 25 87 48 16 30 -7 25
-58 -13z"/>
<path d="M7280 906 c0 -99 -2 -117 -14 -107 -11 9 -14 7 -18 -11 -2 -13 -2
-31 0 -41 3 -14 7 -16 18 -6 11 9 14 9 14 0 0 -7 5 -9 10 -6 13 8 13 255 0
275 -7 10 -10 -23 -10 -104z"/>
<path d="M7159 964 c-46 -14 -48 -16 -82 -97 -46 -110 -61 -157 -51 -166 5 -4
48 -42 95 -84 l86 -77 6 143 c3 78 11 166 17 195 13 57 7 103 -13 101 -6 -1
-33 -7 -58 -15z"/>
<path d="M6133 906 c-38 -33 -49 -37 -151 -50 -60 -8 -119 -12 -131 -9 -15 4
-21 1 -21 -12 0 -15 -6 -17 -36 -12 -22 4 -50 0 -72 -8 -19 -8 -47 -15 -63
-15 -32 0 -34 -2 -43 -54 l-7 -39 128 5 c130 6 364 49 371 68 2 6 10 10 17 10
7 0 23 8 34 18 19 15 22 26 19 75 l-3 58 -42 -35z"/>
<path d="M3225 883 c35 -61 64 -93 85 -93 18 0 100 50 100 61 0 4 -14 19 -32
34 -22 18 -39 25 -56 22 -14 -3 -43 1 -65 9 -59 21 -61 18 -32 -33z"/>
<path d="M7030 880 c0 -5 5 -10 10 -10 6 0 10 5 10 10 0 6 -4 10 -10 10 -5 0
-10 -4 -10 -10z"/>
<path d="M6980 760 c0 -5 5 -10 10 -10 6 0 10 5 10 10 0 6 -4 10 -10 10 -5 0
-10 -4 -10 -10z"/>
<path d="M6989 658 c-4 -42 24 -77 103 -131 54 -36 65 -63 21 -52 -16 3 -52
23 -81 42 -28 20 -55 34 -58 30 -3 -3 13 -23 35 -45 23 -22 41 -42 41 -46 0
-3 -22 -6 -49 -6 -47 0 -61 -9 -61 -42 0 -14 129 -6 138 9 4 5 23 15 42 22 19
6 46 20 59 30 22 17 23 19 7 49 -9 17 -40 47 -69 66 -29 19 -63 46 -77 61 -25
27 -49 33 -51 13z"/>
<path d="M6820 570 c0 -5 5 -10 10 -10 6 0 10 5 10 10 0 6 -4 10 -10 10 -5 0
-10 -4 -10 -10z"/>
<path d="M6810 470 c0 -5 5 -10 10 -10 6 0 10 5 10 10 0 6 -4 10 -10 10 -5 0
-10 -4 -10 -10z"/>
</g>
</svg>
